<svg version="1.1" id="Layer_1" xmlns="http://www.w3.org/2000/svg" x="0px" y="0px" viewBox="0 0 725 113" style="enable-background:new 0 0 725 113;" xmlns:xlink="http://www.w3.org/1999/xlink" xml:space="preserve">
<style type="text/css">
	.st0{stroke:#000000;stroke-width:0.5;stroke-miterlimit:10;}
</style>
<path class="st0" d="M105,44.6c0-2.8,1.7-4.1,3.8-4.1c2.2,0,4.1,1.7,4.2,5.1l0,0l0,0l0,0l0,0c0,0.4,0.3,0.6,0.7,0.6l4.7-0.5
	c0.4,0,0.7-0.3,0.7-0.7l0,0c0-5.8-4-10.4-10.4-10.4c-6.2,0-10.3,3.8-10.3,10.1c0,4.2,2.3,7.9,6.1,10l3.4,1.9
	c2.7,1.5,4.9,3.9,4.9,6.9c0,3.3-1.7,5.3-4.2,5.3c-3.1,0-4.6-2.9-4.9-8.1l0,0l0,0c0-0.1,0-0.2,0-0.2c-0.1-0.3-0.3-0.5-0.7-0.5
	l-5.3,0.5c-0.4,0-0.7,0.3-0.7,0.6l0,0l0,0l0,0v0.1c0.5,9.1,4.8,13.3,11.7,13.3c6.7,0,11-4.8,11-11.7c0-4.8-2.5-9.1-7.3-11.7
	l-3.8-2.1C106.3,48.1,105,46.8,105,44.6 M173.8,73.6l-11-27c-0.1-0.4,0-0.9,0.2-1.1l9.6-9.6c0.3-0.3,0.2-0.5-0.2-0.5h-7.2
	c-0.4,0-0.9,0.2-1.2,0.5l-8.5,8.7c-0.3,0.3-0.5,0.2-0.5-0.2V36c0-0.4-0.3-0.7-0.7-0.7h-5.5c-0.4,0-0.7,0.3-0.7,0.7v37.5
	c0,0.4,0.3,0.7,0.7,0.7h5.5c0.4,0,0.7-0.3,0.7-0.7v-20c0-0.4,0.2-0.9,0.5-1.2l1-1.1c0.3-0.3,0.6-0.2,0.7,0.1l8.9,22.1
	c0.1,0.4,0.6,0.6,0.9,0.6h6.2C173.8,74.3,174,74,173.8,73.6 M208.6,73.6V36.1c0-0.4-0.3-0.7-0.7-0.7h-5.5c-0.4,0-0.7,0.3-0.7,0.7
	v37.5c0,0.4,0.3,0.7,0.7,0.7h5.5C208.3,74.3,208.6,74,208.6,73.6 M259.7,40.8V36c0-0.4-0.3-0.7-0.7-0.7h-22.5
	c-0.4,0-0.7,0.3-0.7,0.7v4.8c0,0.4,0.3,0.7,0.7,0.7h7.1c0.4,0,0.7,0.3,0.7,0.7v31.4c0,0.4,0.3,0.7,0.7,0.7h5.5
	c0.4,0,0.7-0.3,0.7-0.7V42.2c0-0.4,0.3-0.7,0.7-0.7h7.1C259.4,41.5,259.7,41.2,259.7,40.8 M307.6,40.8V36c0-0.4-0.3-0.7-0.7-0.7
	h-22.5c-0.4,0-0.7,0.3-0.7,0.7v4.8c0,0.4,0.3,0.7,0.7,0.7h7.1c0.4,0,0.7,0.3,0.7,0.7v31.4c0,0.4,0.3,0.7,0.7,0.7h5.5
	c0.4,0,0.7-0.3,0.7-0.7V42.2c0-0.4,0.3-0.7,0.7-0.7h7.1C307.3,41.5,307.6,41.2,307.6,40.8 M354.3,73.6v-4.8c0-0.4-0.3-0.7-0.7-0.7
	h-11.2c-0.4,0-0.7-0.3-0.7-0.7V36c0-0.4-0.3-0.7-0.7-0.7h-5.5c-0.4,0-0.7,0.3-0.7,0.7v37.5c0,0.4,0.3,0.7,0.7,0.7h18.1
	C354,74.3,354.3,74,354.3,73.6 M400.3,73.6v-4.8c0-0.4-0.3-0.7-0.7-0.7h-11.3c-0.4,0-0.7-0.3-0.7-0.7V55.1c0-0.4,0.3-0.7,0.7-0.7
	h10.2c0.4,0,0.7-0.3,0.7-0.7v-4.8c0-0.4-0.3-0.7-0.7-0.7h-10.2c-0.4,0-0.7-0.3-0.7-0.7v-5.3c0-0.4,0.3-0.7,0.7-0.7h11.1
	c0.4,0,0.7-0.3,0.7-0.7V36c0-0.4-0.3-0.7-0.7-0.7h-18c-0.4,0-0.7,0.3-0.7,0.7v37.5c0,0.4,0.3,0.7,0.7,0.7h18.2
	C399.9,74.3,400.3,74,400.3,73.6 M478,73.5v-4.8c0-0.4-0.3-0.7-0.7-0.7h-11.2c-0.4,0-0.7-0.3-0.7-0.7V36c0-0.4-0.3-0.7-0.7-0.7h-5.5
	c-0.4,0-0.7,0.3-0.7,0.7v37.5c0,0.4,0.3,0.7,0.7,0.7h18.1C477.7,74.2,478,73.9,478,73.5 M530.3,73.6L521.6,36
	c-0.1-0.4-0.5-0.7-0.8-0.7h-8.6c-0.4,0-0.8,0.3-0.8,0.7L503,73.6c-0.1,0.4,0.2,0.7,0.5,0.7h5.5c0.4,0,0.8-0.3,0.8-0.7l2.8-12.5
	c0.1-0.4,0.5-0.7,0.8-0.7h6c0.4,0,0.8,0.3,0.8,0.7l2.7,12.5c0.1,0.4,0.5,0.7,0.8,0.7h6C530.1,74.2,530.3,73.9,530.3,73.6z
	 M518.4,54.8h-4.1c-0.4,0-0.6-0.3-0.6-0.7l2.5-12.3c0.1-0.4,0.4-0.4,0.4,0l2.4,12.3C519.1,54.5,518.8,54.8,518.4,54.8z M574.7,35.3
	c-0.4,0-0.7,0.3-0.7,0.7v23.4c0,0.4-0.1,0.4-0.3,0.1l-11-23.5c-0.2-0.3-0.6-0.6-1-0.6H556c-0.4,0-0.7,0.3-0.7,0.7v37.5
	c0,0.4,0.3,0.7,0.7,0.7h5.5c0.4,0,0.7-0.3,0.7-0.7V50.2c0-0.4,0.1-0.4,0.3-0.1l11,23.4c0.2,0.3,0.6,0.6,1,0.6h5.8
	c0.4,0,0.7-0.3,0.7-0.7V36c0-0.4-0.3-0.7-0.7-0.7H574.7z M627.9,35.3h-18c-0.4,0-0.7,0.3-0.7,0.7v37.5c0,0.4,0.3,0.7,0.7,0.7h18.2
	c0.4,0,0.7-0.3,0.7-0.7v-4.8c0-0.4-0.3-0.7-0.7-0.7h-11.3c-0.4,0-0.7-0.3-0.7-0.7V55.1c0-0.4,0.3-0.7,0.7-0.7H627
	c0.4,0,0.7-0.3,0.7-0.7v-4.8c0-0.4-0.3-0.7-0.7-0.7h-10.2c-0.4,0-0.7-0.3-0.7-0.7v-5.3c0-0.4,0.3-0.7,0.7-0.7h11.1
	c0.4,0,0.7-0.3,0.7-0.7V36C628.5,35.6,628.2,35.3,627.9,35.3"></path>
</svg>